<svg xmlns="http://www.w3.org/2000/svg" width="1024" height="1024" viewBox="0 0 1024 1024">
  <path d="M 437,227 L 437,228 L 436,229 L 436,230 L 435,231 L 435,232 L 434,233 L 434,234 L 433,235 L 433,236 L 432,237 L 432,238 L 431,239 L 431,240 L 430,241 L 430,242 L 429,243 L 429,244 L 428,245 L 428,246 L 426,248 L 426,249 L 425,250 L 425,251 L 424,252 L 424,253 L 422,255 L 422,256 L 421,257 L 421,258 L 420,259 L 420,260 L 419,261 L 419,262 L 417,264 L 417,265 L 416,266 L 416,267 L 415,268 L 415,269 L 414,270 L 414,271 L 413,272 L 413,273 L 412,274 L 412,275 L 411,276 L 411,277 L 410,278 L 410,279 L 409,280 L 409,281 L 408,282 L 408,283 L 406,285 L 406,286 L 405,287 L 405,288 L 404,289 L 404,290 L 403,291 L 403,292 L 402,293 L 402,294 L 401,295 L 401,296 L 400,297 L 400,298 L 399,299 L 399,300 L 398,301 L 398,302 L 397,303 L 397,304 L 396,305 L 396,306 L 395,307 L 395,308 L 394,309 L 394,310 L 393,311 L 393,312 L 392,313 L 392,314 L 391,315 L 391,316 L 390,317 L 390,318 L 389,319 L 389,320 L 387,322 L 387,323 L 386,324 L 386,325 L 385,326 L 385,327 L 384,328 L 384,329 L 383,330 L 383,331 L 382,332 L 382,333 L 381,334 L 381,335 L 380,336 L 380,337 L 379,338 L 379,339 L 378,340 L 378,341 L 377,342 L 377,343 L 375,345 L 375,346 L 374,347 L 374,348 L 373,349 L 373,350 L 372,351 L 372,352 L 371,353 L 371,354 L 370,355 L 370,356 L 369,357 L 369,358 L 368,359 L 368,360 L 367,361 L 367,362 L 366,363 L 366,364 L 365,365 L 365,366 L 364,367 L 364,368 L 363,369 L 363,370 L 362,371 L 362,372 L 361,373 L 361,374 L 360,375 L 360,376 L 359,377 L 359,378 L 358,379 L 358,380 L 357,381 L 357,382 L 356,383 L 356,384 L 355,385 L 355,386 L 354,387 L 354,388 L 353,389 L 353,390 L 352,391 L 352,392 L 351,393 L 351,394 L 350,395 L 350,396 L 349,397 L 349,398 L 347,400 L 347,401 L 346,402 L 346,403 L 345,404 L 345,405 L 344,406 L 344,407 L 343,408 L 343,409 L 342,410 L 342,411 L 341,412 L 341,413 L 340,414 L 340,415 L 339,416 L 339,417 L 338,418 L 338,419 L 337,420 L 337,421 L 336,422 L 336,423 L 335,424 L 335,425 L 334,426 L 334,427 L 333,428 L 333,429 L 332,430 L 332,431 L 331,432 L 331,433 L 330,434 L 330,435 L 329,436 L 329,437 L 328,438 L 328,439 L 327,440 L 327,441 L 325,443 L 325,444 L 324,445 L 324,446 L 323,447 L 323,448 L 322,449 L 322,450 L 321,451 L 321,452 L 320,453 L 320,454 L 319,455 L 319,456 L 318,457 L 318,458 L 317,459 L 317,460 L 316,461 L 316,462 L 315,463 L 315,464 L 314,465 L 314,466 L 313,467 L 313,468 L 312,469 L 312,470 L 311,471 L 311,472 L 310,473 L 310,474 L 309,475 L 309,476 L 308,477 L 308,478 L 307,479 L 307,480 L 306,481 L 306,482 L 305,483 L 305,484 L 304,485 L 304,486 L 303,487 L 303,488 L 302,489 L 302,490 L 301,491 L 301,492 L 299,494 L 299,495 L 298,496 L 298,497 L 297,498 L 297,499 L 296,500 L 296,501 L 295,502 L 295,503 L 294,504 L 294,505 L 293,506 L 293,507 L 292,508 L 292,509 L 291,510 L 291,511 L 290,512 L 290,513 L 289,514 L 289,515 L 288,516 L 288,517 L 287,518 L 287,520 L 286,521 L 286,522 L 285,523 L 285,524 L 284,525 L 284,526 L 283,527 L 283,528 L 282,529 L 282,530 L 281,531 L 281,532 L 280,533 L 280,534 L 279,535 L 279,536 L 278,537 L 278,538 L 277,539 L 277,540 L 276,541 L 276,542 L 275,543 L 275,544 L 274,545 L 274,546 L 273,547 L 273,548 L 271,550 L 271,551 L 270,552 L 270,553 L 269,554 L 269,555 L 268,556 L 268,557 L 267,558 L 267,559 L 266,560 L 266,561 L 265,562 L 265,563 L 264,564 L 264,565 L 263,566 L 263,567 L 262,568 L 262,569 L 261,570 L 261,571 L 260,572 L 260,573 L 259,574 L 259,575 L 258,576 L 258,578 L 256,580 L 256,582 L 255,583 L 255,584 L 254,585 L 254,586 L 253,587 L 253,588 L 252,589 L 252,590 L 251,591 L 251,592 L 250,593 L 250,594 L 249,595 L 249,596 L 248,597 L 248,598 L 247,599 L 247,600 L 246,601 L 246,602 L 245,603 L 245,604 L 244,605 L 244,606 L 243,607 L 243,608 L 242,609 L 242,610 L 241,611 L 241,612 L 240,613 L 240,614 L 239,615 L 239,616 L 238,617 L 238,618 L 237,619 L 237,620 L 236,621 L 236,622 L 234,624 L 234,625 L 233,626 L 233,627 L 232,628 L 232,629 L 231,630 L 231,631 L 230,632 L 230,633 L 229,634 L 229,635 L 228,636 L 228,637 L 227,638 L 227,639 L 226,640 L 226,641 L 225,642 L 225,643 L 223,645 L 223,647 L 222,648 L 222,649 L 221,650 L 221,651 L 220,652 L 220,653 L 219,654 L 219,655 L 218,656 L 218,657 L 217,658 L 217,659 L 216,660 L 216,661 L 215,662 L 215,663 L 214,664 L 214,665 L 213,666 L 213,667 L 212,668 L 212,669 L 211,670 L 211,671 L 210,672 L 210,673 L 209,674 L 209,675 L 207,677 L 207,678 L 206,679 L 206,680 L 205,681 L 205,682 L 204,683 L 204,684 L 203,685 L 203,686 L 202,687 L 202,688 L 201,689 L 201,690 L 200,691 L 200,692 L 199,693 L 199,694 L 198,695 L 198,696 L 197,697 L 197,698 L 196,699 L 196,700 L 195,701 L 195,702 L 194,703 L 194,704 L 193,705 L 193,706 L 192,707 L 192,708 L 191,709 L 191,710 L 190,711 L 190,712 L 189,713 L 189,714 L 188,715 L 188,716 L 187,717 L 187,718 L 186,719 L 186,720 L 185,721 L 185,722 L 184,723 L 184,724 L 218,724 L 219,723 L 219,722 L 220,721 L 220,720 L 221,719 L 221,718 L 222,717 L 222,716 L 223,715 L 223,714 L 224,713 L 224,712 L 225,711 L 225,710 L 226,709 L 226,708 L 227,707 L 227,706 L 228,705 L 228,704 L 229,703 L 229,702 L 230,701 L 230,700 L 231,699 L 231,698 L 232,697 L 232,696 L 233,695 L 233,694 L 234,693 L 234,692 L 236,690 L 236,689 L 237,688 L 237,687 L 238,686 L 238,685 L 239,684 L 239,683 L 240,682 L 240,681 L 241,680 L 241,679 L 242,678 L 242,677 L 243,676 L 243,675 L 244,674 L 244,673 L 245,672 L 245,671 L 246,670 L 246,669 L 247,668 L 247,667 L 249,665 L 249,664 L 250,663 L 250,662 L 251,661 L 251,660 L 252,659 L 252,658 L 254,656 L 254,655 L 255,654 L 255,653 L 256,652 L 256,651 L 257,650 L 257,649 L 258,648 L 258,647 L 259,646 L 259,645 L 260,644 L 260,643 L 261,642 L 261,641 L 262,640 L 262,639 L 263,638 L 263,637 L 264,636 L 264,635 L 265,634 L 265,633 L 266,632 L 266,631 L 267,630 L 267,629 L 268,628 L 268,627 L 269,626 L 269,624 L 270,623 L 270,622 L 271,621 L 271,620 L 272,619 L 272,618 L 273,617 L 273,616 L 275,614 L 275,613 L 276,612 L 276,611 L 277,610 L 277,609 L 278,608 L 278,607 L 279,606 L 279,605 L 280,604 L 280,603 L 281,602 L 281,601 L 282,600 L 282,599 L 283,598 L 283,597 L 284,596 L 284,595 L 285,594 L 285,593 L 286,592 L 286,591 L 287,590 L 287,589 L 288,588 L 288,587 L 289,586 L 289,584 L 290,583 L 290,582 L 291,581 L 291,580 L 292,579 L 292,578 L 293,577 L 293,576 L 294,575 L 294,574 L 295,573 L 295,572 L 296,571 L 296,570 L 297,569 L 297,568 L 298,567 L 298,566 L 299,565 L 299,564 L 300,563 L 300,562 L 301,561 L 301,560 L 302,559 L 302,558 L 304,556 L 304,555 L 305,554 L 305,553 L 306,552 L 306,551 L 307,550 L 307,549 L 308,548 L 308,547 L 309,546 L 309,545 L 310,544 L 310,543 L 311,542 L 311,541 L 312,540 L 312,539 L 313,538 L 313,537 L 314,536 L 314,535 L 315,534 L 315,533 L 316,532 L 316,531 L 317,530 L 317,529 L 318,528 L 318,527 L 319,526 L 319,525 L 320,524 L 320,523 L 321,522 L 321,521 L 322,520 L 322,519 L 323,518 L 323,517 L 324,516 L 324,515 L 325,514 L 325,513 L 326,512 L 326,511 L 327,510 L 327,509 L 328,508 L 328,507 L 329,506 L 329,505 L 330,504 L 330,503 L 332,501 L 332,500 L 333,499 L 333,498 L 334,497 L 334,496 L 335,495 L 335,494 L 336,493 L 336,492 L 337,491 L 337,490 L 338,489 L 338,488 L 339,487 L 339,486 L 340,485 L 340,484 L 341,483 L 341,482 L 342,481 L 342,480 L 343,479 L 343,478 L 344,477 L 344,476 L 345,475 L 345,474 L 346,473 L 346,472 L 347,471 L 347,470 L 348,469 L 348,468 L 350,466 L 350,465 L 351,464 L 351,463 L 352,462 L 352,460 L 353,459 L 353,458 L 354,457 L 354,456 L 355,455 L 355,454 L 356,453 L 356,452 L 357,451 L 357,450 L 358,449 L 358,448 L 359,447 L 359,446 L 360,445 L 360,444 L 361,443 L 361,442 L 362,441 L 362,440 L 364,438 L 364,437 L 365,436 L 365,435 L 366,434 L 366,433 L 367,432 L 367,431 L 368,430 L 368,429 L 369,428 L 369,427 L 370,426 L 370,425 L 371,424 L 371,423 L 372,422 L 372,421 L 373,420 L 373,419 L 374,418 L 374,417 L 375,416 L 375,415 L 376,414 L 376,413 L 377,412 L 377,411 L 378,410 L 378,409 L 379,408 L 379,407 L 380,406 L 380,405 L 381,404 L 381,403 L 382,402 L 382,401 L 383,400 L 383,399 L 384,398 L 384,397 L 385,396 L 385,395 L 386,394 L 386,393 L 387,392 L 387,391 L 388,390 L 388,389 L 389,388 L 389,387 L 390,386 L 390,385 L 391,384 L 391,383 L 392,382 L 392,381 L 393,380 L 393,379 L 394,378 L 394,377 L 395,376 L 395,375 L 396,374 L 396,373 L 397,372 L 397,371 L 398,370 L 398,369 L 399,368 L 399,367 L 400,366 L 400,365 L 401,364 L 401,363 L 402,362 L 402,361 L 403,360 L 403,359 L 404,358 L 404,356 L 405,355 L 405,354 L 406,353 L 406,352 L 407,351 L 407,350 L 408,349 L 408,348 L 409,347 L 409,346 L 410,345 L 410,344 L 411,343 L 411,342 L 412,341 L 412,340 L 413,339 L 413,338 L 414,337 L 414,336 L 415,335 L 415,334 L 416,333 L 416,332 L 417,331 L 417,330 L 419,328 L 419,327 L 420,326 L 420,325 L 421,324 L 421,323 L 422,322 L 422,321 L 423,320 L 423,319 L 424,318 L 424,317 L 426,315 L 426,314 L 427,313 L 427,312 L 428,311 L 428,310 L 429,309 L 429,308 L 430,307 L 430,306 L 431,305 L 431,304 L 433,302 L 433,301 L 434,300 L 434,299 L 435,298 L 435,297 L 436,296 L 436,295 L 437,294 L 439,296 L 439,297 L 441,299 L 441,300 L 442,301 L 442,302 L 443,303 L 443,304 L 444,305 L 444,306 L 446,308 L 446,309 L 447,310 L 447,311 L 448,312 L 448,313 L 449,314 L 449,315 L 450,316 L 450,317 L 451,318 L 451,319 L 452,320 L 452,321 L 453,322 L 453,323 L 454,324 L 454,325 L 455,326 L 455,327 L 456,328 L 456,329 L 457,330 L 457,331 L 458,332 L 458,333 L 459,334 L 459,335 L 460,336 L 460,337 L 461,338 L 461,339 L 463,341 L 463,342 L 464,343 L 464,344 L 465,345 L 465,346 L 466,347 L 466,348 L 467,349 L 467,350 L 468,351 L 468,352 L 470,354 L 470,355 L 471,356 L 471,357 L 472,358 L 472,359 L 473,360 L 473,361 L 474,362 L 474,363 L 476,365 L 476,366 L 477,367 L 477,368 L 478,369 L 478,370 L 479,371 L 479,372 L 480,373 L 480,374 L 481,375 L 481,376 L 482,377 L 482,378 L 483,379 L 483,380 L 484,381 L 484,382 L 485,383 L 485,384 L 486,385 L 486,386 L 487,387 L 487,388 L 488,389 L 488,390 L 489,391 L 489,392 L 490,393 L 490,394 L 491,395 L 491,396 L 492,397 L 492,398 L 493,399 L 493,400 L 494,401 L 494,402 L 495,403 L 495,404 L 496,405 L 496,406 L 497,407 L 497,408 L 498,409 L 498,410 L 499,411 L 499,412 L 500,413 L 500,414 L 501,415 L 501,416 L 502,417 L 502,418 L 503,419 L 503,420 L 504,421 L 504,422 L 505,423 L 505,424 L 506,425 L 506,426 L 507,427 L 507,428 L 508,429 L 508,430 L 509,431 L 509,432 L 510,433 L 510,434 L 511,435 L 511,436 L 512,437 L 512,438 L 513,439 L 513,440 L 514,441 L 514,442 L 515,443 L 515,444 L 516,445 L 516,446 L 518,448 L 518,449 L 519,450 L 519,451 L 520,452 L 520,453 L 521,454 L 521,455 L 522,456 L 522,457 L 523,458 L 523,459 L 524,460 L 524,461 L 525,462 L 525,463 L 526,464 L 526,465 L 527,466 L 527,467 L 528,468 L 528,469 L 530,471 L 530,472 L 531,473 L 531,474 L 532,475 L 532,476 L 533,477 L 533,478 L 534,479 L 534,480 L 535,481 L 535,482 L 536,483 L 536,484 L 538,486 L 538,487 L 539,488 L 539,489 L 540,490 L 540,491 L 541,492 L 541,493 L 542,494 L 542,495 L 544,497 L 544,498 L 545,499 L 545,500 L 546,501 L 546,502 L 547,503 L 547,504 L 548,505 L 548,506 L 549,507 L 549,508 L 550,509 L 550,510 L 551,511 L 551,512 L 552,513 L 552,514 L 553,515 L 553,516 L 554,517 L 554,518 L 555,519 L 555,520 L 556,521 L 556,522 L 557,523 L 557,524 L 558,525 L 558,526 L 559,527 L 559,528 L 560,529 L 560,530 L 561,531 L 561,532 L 562,533 L 562,534 L 563,535 L 563,536 L 565,538 L 565,539 L 566,540 L 566,541 L 567,542 L 567,543 L 568,544 L 568,545 L 569,546 L 569,547 L 570,548 L 570,549 L 571,550 L 571,551 L 572,552 L 572,553 L 573,554 L 573,555 L 574,556 L 574,557 L 576,559 L 576,560 L 577,561 L 577,562 L 578,563 L 578,564 L 579,565 L 579,566 L 580,567 L 580,568 L 581,569 L 581,570 L 582,571 L 582,572 L 583,573 L 583,574 L 584,575 L 584,576 L 586,578 L 586,579 L 587,580 L 587,581 L 588,582 L 588,583 L 589,584 L 589,585 L 590,586 L 590,587 L 591,588 L 591,589 L 592,590 L 592,591 L 593,592 L 593,593 L 594,594 L 594,595 L 595,596 L 595,597 L 596,598 L 596,599 L 597,600 L 597,601 L 598,602 L 598,603 L 599,604 L 599,605 L 600,606 L 600,607 L 601,608 L 601,609 L 602,610 L 602,611 L 603,612 L 603,613 L 604,614 L 604,615 L 605,616 L 605,617 L 606,618 L 606,619 L 607,620 L 607,621 L 608,622 L 608,623 L 609,624 L 609,625 L 610,626 L 610,627 L 612,629 L 612,630 L 613,631 L 613,632 L 614,633 L 614,634 L 616,636 L 616,637 L 617,638 L 617,639 L 618,640 L 618,641 L 619,642 L 619,643 L 620,644 L 620,645 L 621,646 L 621,647 L 623,649 L 623,650 L 624,651 L 624,652 L 625,653 L 625,654 L 626,655 L 626,656 L 627,657 L 627,658 L 628,659 L 628,660 L 629,661 L 629,662 L 665,662 L 663,660 L 663,659 L 662,658 L 662,657 L 661,656 L 661,655 L 660,654 L 660,653 L 659,652 L 659,651 L 658,650 L 658,649 L 657,648 L 657,647 L 656,646 L 656,645 L 654,643 L 654,642 L 653,641 L 653,640 L 652,639 L 652,638 L 651,637 L 651,636 L 650,635 L 650,634 L 649,633 L 649,632 L 648,631 L 648,630 L 647,629 L 647,628 L 646,627 L 646,626 L 645,625 L 645,624 L 644,623 L 644,622 L 643,621 L 643,620 L 642,619 L 642,618 L 640,616 L 640,615 L 639,614 L 639,613 L 638,612 L 638,611 L 637,610 L 637,609 L 636,608 L 636,607 L 635,606 L 635,605 L 634,604 L 634,603 L 633,602 L 633,601 L 632,600 L 632,599 L 631,598 L 631,597 L 629,595 L 629,594 L 628,593 L 628,592 L 627,591 L 627,590 L 626,589 L 626,588 L 625,587 L 625,586 L 624,585 L 624,584 L 623,583 L 623,582 L 622,581 L 622,580 L 621,579 L 621,578 L 620,577 L 620,576 L 619,575 L 619,574 L 618,573 L 618,572 L 616,570 L 616,569 L 615,568 L 615,567 L 614,566 L 614,565 L 613,564 L 613,563 L 612,562 L 612,561 L 611,560 L 611,559 L 610,558 L 610,557 L 609,556 L 609,555 L 608,554 L 608,553 L 607,552 L 607,551 L 606,550 L 606,549 L 605,548 L 605,547 L 604,546 L 604,545 L 603,544 L 603,543 L 602,542 L 602,541 L 600,539 L 600,538 L 599,537 L 599,536 L 598,535 L 598,534 L 597,533 L 597,532 L 596,531 L 596,530 L 595,529 L 595,528 L 594,527 L 594,526 L 593,525 L 593,524 L 592,523 L 592,522 L 591,521 L 591,520 L 590,519 L 590,518 L 589,517 L 589,516 L 588,515 L 588,514 L 587,513 L 587,512 L 585,510 L 585,509 L 584,508 L 584,507 L 583,506 L 583,505 L 582,504 L 582,503 L 581,502 L 581,501 L 580,500 L 580,499 L 579,498 L 579,497 L 578,496 L 579,495 L 585,495 L 586,496 L 587,495 L 600,495 L 601,496 L 654,496 L 655,497 L 667,497 L 668,498 L 674,498 L 675,499 L 679,499 L 680,500 L 683,500 L 684,501 L 687,501 L 688,502 L 690,502 L 691,503 L 693,503 L 694,504 L 696,504 L 697,505 L 699,505 L 700,506 L 702,506 L 703,507 L 705,507 L 706,508 L 707,508 L 708,509 L 710,509 L 711,510 L 712,510 L 713,511 L 714,511 L 715,512 L 716,512 L 717,513 L 718,513 L 719,514 L 720,514 L 721,515 L 722,515 L 723,516 L 724,516 L 725,517 L 726,517 L 728,519 L 729,519 L 730,520 L 731,520 L 734,523 L 735,523 L 748,536 L 748,537 L 751,540 L 751,541 L 753,543 L 753,544 L 754,545 L 754,546 L 756,548 L 756,549 L 757,550 L 757,551 L 758,552 L 758,553 L 759,554 L 759,556 L 760,557 L 760,558 L 761,559 L 761,560 L 762,561 L 762,563 L 763,564 L 763,567 L 764,568 L 764,572 L 765,573 L 765,579 L 766,580 L 766,601 L 765,602 L 765,607 L 764,608 L 764,612 L 763,613 L 763,615 L 762,616 L 762,619 L 761,620 L 761,621 L 760,622 L 760,624 L 759,625 L 759,626 L 758,627 L 758,628 L 757,629 L 757,630 L 756,631 L 756,632 L 755,633 L 755,634 L 754,635 L 754,636 L 752,638 L 752,639 L 750,641 L 750,642 L 747,645 L 747,646 L 743,650 L 743,651 L 734,660 L 733,660 L 728,665 L 727,665 L 725,667 L 724,667 L 721,670 L 720,670 L 719,671 L 718,671 L 716,673 L 715,673 L 714,674 L 713,674 L 712,675 L 711,675 L 710,676 L 709,676 L 708,677 L 707,677 L 706,678 L 705,678 L 704,679 L 703,679 L 702,680 L 701,680 L 700,681 L 698,681 L 697,682 L 695,682 L 694,683 L 692,683 L 691,684 L 688,684 L 687,685 L 683,685 L 682,686 L 677,686 L 676,687 L 670,687 L 669,688 L 628,688 L 627,689 L 599,689 L 597,687 L 597,686 L 596,685 L 596,684 L 595,683 L 595,682 L 594,681 L 594,679 L 593,678 L 593,677 L 592,676 L 592,675 L 591,674 L 591,673 L 590,672 L 590,671 L 589,670 L 589,669 L 588,668 L 588,667 L 587,666 L 587,665 L 586,664 L 586,663 L 584,661 L 584,660 L 583,659 L 583,658 L 582,657 L 582,656 L 581,655 L 581,654 L 580,653 L 580,652 L 579,651 L 579,650 L 578,649 L 578,648 L 577,647 L 577,646 L 576,645 L 576,644 L 575,643 L 575,642 L 574,641 L 574,640 L 573,639 L 573,638 L 572,637 L 572,636 L 571,635 L 571,634 L 570,633 L 570,632 L 569,631 L 569,630 L 568,629 L 568,628 L 567,627 L 567,626 L 566,625 L 566,624 L 565,623 L 565,622 L 564,621 L 564,620 L 563,619 L 563,618 L 562,617 L 562,616 L 561,615 L 561,614 L 560,613 L 560,612 L 559,611 L 559,610 L 558,609 L 558,608 L 557,607 L 557,606 L 556,605 L 556,604 L 555,603 L 555,602 L 554,601 L 554,600 L 553,599 L 553,598 L 552,597 L 552,596 L 551,595 L 551,594 L 550,593 L 550,592 L 549,591 L 549,590 L 548,589 L 548,588 L 546,586 L 546,585 L 545,584 L 545,583 L 544,582 L 544,581 L 543,580 L 543,579 L 542,578 L 542,577 L 541,576 L 541,575 L 540,574 L 540,573 L 539,572 L 539,571 L 538,570 L 538,569 L 537,568 L 537,567 L 536,566 L 536,565 L 535,564 L 535,563 L 534,562 L 534,561 L 533,560 L 533,559 L 532,558 L 532,557 L 530,555 L 530,554 L 529,553 L 529,552 L 528,551 L 528,550 L 527,549 L 527,548 L 526,547 L 526,546 L 525,545 L 525,544 L 524,543 L 524,542 L 523,541 L 523,540 L 522,539 L 522,538 L 521,537 L 521,536 L 520,535 L 520,534 L 518,532 L 518,531 L 517,530 L 517,529 L 516,528 L 516,527 L 515,526 L 515,525 L 514,524 L 514,523 L 513,522 L 513,521 L 512,520 L 512,519 L 510,517 L 510,516 L 509,515 L 509,514 L 508,513 L 508,512 L 507,511 L 507,510 L 506,509 L 506,508 L 505,507 L 505,506 L 504,505 L 504,504 L 503,503 L 503,502 L 502,501 L 502,500 L 501,499 L 501,498 L 500,497 L 500,496 L 498,494 L 498,493 L 497,492 L 497,491 L 496,490 L 496,489 L 495,488 L 495,487 L 494,486 L 494,485 L 493,484 L 493,483 L 492,482 L 492,481 L 491,480 L 491,479 L 490,478 L 490,477 L 489,476 L 489,475 L 488,474 L 488,473 L 487,472 L 487,471 L 485,469 L 485,468 L 484,467 L 484,466 L 483,465 L 483,464 L 482,463 L 482,462 L 481,461 L 481,460 L 480,459 L 480,458 L 479,457 L 479,456 L 478,455 L 478,454 L 477,453 L 477,452 L 476,451 L 476,450 L 474,448 L 474,447 L 473,446 L 473,445 L 472,444 L 472,443 L 471,442 L 471,441 L 470,440 L 470,439 L 469,438 L 469,437 L 467,435 L 467,434 L 466,433 L 466,432 L 465,431 L 465,430 L 464,429 L 464,428 L 463,427 L 463,426 L 462,425 L 462,424 L 461,423 L 461,422 L 460,421 L 460,420 L 459,419 L 459,418 L 458,417 L 458,416 L 457,415 L 457,414 L 456,413 L 456,412 L 455,411 L 455,410 L 454,409 L 454,408 L 453,407 L 453,406 L 452,405 L 452,404 L 451,403 L 451,402 L 450,401 L 450,400 L 449,399 L 449,398 L 448,397 L 448,396 L 447,395 L 447,394 L 446,393 L 446,392 L 445,391 L 445,390 L 443,388 L 443,387 L 442,386 L 442,385 L 441,384 L 441,383 L 440,382 L 440,381 L 439,380 L 439,379 L 438,378 L 437,378 L 437,380 L 436,381 L 436,382 L 435,383 L 435,384 L 434,385 L 434,386 L 432,388 L 432,390 L 431,391 L 431,392 L 430,393 L 430,394 L 428,396 L 428,397 L 427,398 L 427,400 L 426,401 L 426,402 L 425,403 L 425,404 L 424,405 L 424,406 L 423,407 L 423,408 L 422,409 L 422,410 L 421,411 L 421,412 L 420,413 L 420,414 L 419,415 L 419,416 L 418,417 L 418,418 L 417,419 L 417,420 L 416,421 L 416,422 L 415,423 L 415,424 L 414,425 L 414,426 L 413,427 L 413,428 L 412,429 L 412,430 L 411,431 L 411,432 L 410,433 L 410,434 L 409,435 L 409,436 L 408,437 L 408,438 L 407,439 L 407,440 L 406,441 L 406,442 L 404,444 L 404,445 L 403,446 L 403,447 L 402,448 L 402,449 L 401,450 L 401,451 L 400,452 L 400,453 L 399,454 L 399,455 L 398,456 L 398,457 L 397,458 L 397,459 L 396,460 L 396,461 L 395,462 L 395,463 L 394,464 L 394,465 L 393,466 L 393,467 L 392,468 L 392,469 L 391,470 L 391,471 L 390,472 L 390,474 L 389,475 L 389,476 L 388,477 L 388,478 L 387,479 L 387,480 L 386,481 L 386,482 L 385,483 L 385,484 L 384,485 L 384,486 L 383,487 L 383,488 L 382,489 L 382,490 L 381,491 L 381,492 L 380,493 L 380,494 L 379,495 L 379,496 L 378,497 L 378,498 L 377,499 L 377,500 L 376,501 L 376,502 L 375,503 L 375,504 L 374,505 L 374,506 L 373,507 L 373,508 L 372,509 L 372,510 L 371,511 L 371,512 L 370,513 L 370,514 L 368,516 L 368,517 L 367,518 L 367,519 L 366,520 L 366,521 L 365,522 L 365,523 L 364,524 L 364,525 L 363,526 L 363,527 L 362,528 L 362,529 L 361,530 L 361,531 L 360,532 L 360,533 L 359,534 L 359,535 L 358,536 L 358,537 L 357,538 L 357,539 L 356,540 L 356,541 L 355,542 L 355,543 L 354,544 L 354,545 L 353,546 L 353,547 L 352,548 L 352,549 L 351,550 L 351,551 L 350,552 L 350,553 L 349,554 L 349,555 L 348,556 L 348,557 L 347,558 L 347,559 L 346,560 L 346,561 L 345,562 L 345,563 L 344,564 L 344,565 L 343,566 L 343,567 L 342,568 L 342,569 L 341,570 L 341,571 L 340,572 L 340,573 L 339,574 L 339,575 L 337,577 L 337,579 L 335,581 L 335,582 L 334,583 L 334,584 L 333,585 L 333,586 L 332,587 L 332,588 L 331,589 L 331,590 L 330,591 L 330,592 L 329,593 L 329,594 L 328,595 L 328,596 L 327,597 L 327,598 L 326,599 L 326,600 L 325,601 L 325,602 L 324,603 L 324,604 L 323,605 L 323,606 L 322,607 L 322,608 L 321,609 L 321,610 L 320,611 L 320,612 L 319,613 L 319,614 L 318,615 L 318,616 L 317,617 L 317,618 L 316,619 L 316,620 L 315,621 L 315,622 L 314,623 L 314,624 L 313,625 L 313,626 L 312,627 L 312,628 L 311,629 L 311,630 L 310,631 L 310,632 L 309,633 L 309,634 L 308,635 L 308,636 L 306,638 L 306,639 L 305,640 L 305,641 L 304,642 L 304,643 L 303,644 L 303,645 L 302,646 L 302,647 L 301,648 L 301,649 L 300,650 L 300,651 L 299,652 L 299,653 L 298,654 L 298,655 L 297,656 L 297,657 L 296,658 L 296,659 L 295,660 L 295,661 L 294,662 L 294,663 L 293,664 L 293,665 L 292,666 L 292,667 L 290,669 L 290,670 L 289,671 L 289,672 L 288,673 L 288,674 L 287,675 L 287,676 L 286,677 L 286,678 L 285,679 L 285,680 L 283,682 L 283,683 L 282,684 L 282,685 L 281,686 L 281,687 L 280,688 L 280,689 L 279,690 L 279,691 L 278,692 L 278,693 L 277,694 L 277,695 L 276,696 L 276,697 L 275,698 L 275,699 L 274,700 L 274,701 L 273,702 L 273,704 L 272,705 L 272,706 L 271,707 L 271,708 L 270,709 L 270,710 L 269,711 L 269,712 L 268,713 L 268,714 L 267,715 L 267,716 L 265,718 L 265,719 L 264,720 L 264,721 L 263,722 L 263,724 L 297,724 L 297,723 L 298,722 L 298,721 L 299,720 L 299,719 L 300,718 L 300,717 L 301,716 L 301,715 L 302,714 L 302,713 L 304,711 L 304,710 L 305,709 L 305,708 L 306,707 L 306,706 L 307,705 L 307,704 L 308,703 L 308,702 L 309,701 L 309,700 L 311,698 L 311,697 L 312,696 L 312,695 L 313,694 L 313,693 L 314,692 L 314,691 L 315,690 L 315,689 L 316,688 L 316,687 L 317,686 L 317,685 L 318,684 L 318,683 L 319,682 L 319,681 L 320,680 L 320,679 L 321,678 L 321,677 L 322,676 L 322,675 L 323,674 L 323,673 L 324,672 L 324,670 L 325,669 L 325,668 L 326,667 L 326,666 L 327,665 L 327,664 L 328,663 L 328,662 L 330,660 L 330,659 L 331,658 L 331,657 L 332,656 L 332,655 L 333,654 L 333,653 L 334,652 L 334,651 L 336,649 L 336,648 L 337,647 L 337,646 L 338,645 L 338,644 L 339,643 L 339,642 L 340,641 L 340,640 L 341,639 L 341,638 L 342,637 L 342,636 L 343,635 L 343,634 L 344,633 L 344,632 L 345,631 L 345,630 L 346,629 L 346,628 L 347,627 L 347,626 L 348,625 L 348,624 L 350,622 L 350,621 L 351,620 L 351,619 L 352,618 L 352,617 L 353,616 L 353,615 L 354,614 L 354,613 L 356,611 L 356,610 L 357,609 L 357,608 L 358,607 L 358,606 L 359,605 L 359,604 L 360,603 L 360,602 L 361,601 L 361,600 L 362,599 L 362,598 L 363,597 L 363,596 L 364,595 L 364,594 L 365,593 L 365,592 L 366,591 L 366,590 L 367,589 L 367,588 L 368,587 L 368,586 L 370,584 L 509,584 L 511,586 L 511,587 L 512,588 L 512,589 L 513,590 L 513,591 L 514,592 L 514,593 L 515,594 L 515,595 L 516,596 L 516,597 L 517,598 L 517,599 L 518,600 L 518,601 L 519,602 L 519,603 L 520,604 L 520,605 L 521,606 L 521,607 L 523,609 L 523,610 L 524,611 L 524,612 L 525,613 L 525,614 L 526,615 L 526,616 L 527,617 L 527,618 L 528,619 L 528,620 L 529,621 L 529,622 L 530,623 L 530,624 L 531,625 L 531,626 L 532,627 L 532,629 L 533,630 L 533,631 L 535,633 L 535,634 L 536,635 L 536,636 L 537,637 L 537,638 L 538,639 L 538,640 L 539,641 L 539,642 L 540,643 L 540,644 L 541,645 L 541,646 L 542,647 L 542,648 L 543,649 L 543,650 L 544,651 L 544,652 L 545,653 L 545,654 L 546,655 L 546,656 L 547,657 L 547,658 L 548,659 L 548,660 L 549,661 L 549,662 L 550,663 L 550,664 L 551,665 L 551,666 L 552,667 L 552,668 L 553,669 L 553,670 L 554,671 L 554,672 L 555,673 L 555,674 L 556,675 L 556,676 L 557,677 L 557,678 L 558,679 L 558,680 L 559,681 L 559,682 L 560,683 L 560,684 L 561,685 L 561,686 L 562,687 L 562,688 L 564,690 L 564,691 L 565,692 L 565,693 L 566,694 L 566,695 L 567,696 L 567,697 L 568,698 L 568,699 L 569,700 L 569,701 L 570,702 L 570,703 L 571,704 L 571,705 L 572,706 L 572,707 L 573,708 L 573,709 L 574,710 L 574,711 L 575,712 L 575,713 L 577,715 L 577,716 L 578,717 L 578,718 L 579,719 L 579,720 L 580,721 L 580,722 L 618,722 L 619,723 L 620,722 L 621,723 L 658,723 L 659,722 L 669,722 L 670,721 L 676,721 L 677,720 L 681,720 L 682,719 L 686,719 L 687,718 L 691,718 L 692,717 L 694,717 L 695,716 L 698,716 L 699,715 L 701,715 L 702,714 L 705,714 L 706,713 L 708,713 L 709,712 L 711,712 L 712,711 L 713,711 L 714,710 L 716,710 L 717,709 L 718,709 L 719,708 L 720,708 L 721,707 L 723,707 L 724,706 L 725,706 L 726,705 L 727,705 L 728,704 L 729,704 L 731,702 L 732,702 L 733,701 L 734,701 L 735,700 L 736,700 L 738,698 L 739,698 L 741,696 L 742,696 L 744,694 L 745,694 L 747,692 L 748,692 L 752,688 L 753,688 L 770,671 L 770,670 L 774,666 L 774,665 L 776,663 L 776,662 L 779,659 L 779,658 L 781,656 L 781,655 L 782,654 L 782,653 L 784,651 L 784,650 L 785,649 L 785,648 L 786,647 L 786,646 L 787,645 L 787,644 L 788,643 L 788,642 L 789,641 L 789,640 L 790,639 L 790,638 L 791,637 L 791,635 L 792,634 L 792,633 L 793,632 L 793,630 L 794,629 L 794,627 L 795,626 L 795,623 L 796,622 L 796,619 L 797,618 L 797,614 L 798,613 L 798,606 L 799,605 L 799,595 L 800,594 L 800,589 L 799,588 L 799,578 L 798,577 L 798,571 L 797,570 L 797,566 L 796,565 L 796,561 L 795,560 L 795,558 L 794,557 L 794,555 L 793,554 L 793,552 L 792,551 L 792,549 L 791,548 L 791,547 L 790,546 L 790,544 L 789,543 L 789,541 L 788,540 L 788,539 L 787,538 L 787,537 L 786,536 L 786,535 L 785,534 L 785,533 L 784,532 L 784,531 L 783,530 L 783,529 L 781,527 L 781,526 L 780,525 L 780,524 L 777,521 L 777,520 L 774,517 L 774,516 L 757,499 L 756,499 L 753,496 L 752,496 L 750,494 L 749,494 L 748,493 L 747,493 L 745,491 L 744,491 L 743,490 L 742,490 L 741,489 L 740,489 L 739,488 L 738,488 L 737,487 L 736,487 L 735,486 L 733,486 L 732,485 L 731,485 L 730,484 L 729,484 L 728,483 L 727,483 L 726,482 L 724,482 L 723,481 L 722,481 L 721,480 L 719,480 L 718,479 L 717,479 L 716,478 L 714,478 L 713,477 L 715,475 L 716,475 L 717,474 L 718,474 L 720,472 L 721,472 L 723,470 L 724,470 L 726,468 L 727,468 L 730,465 L 731,465 L 744,452 L 744,451 L 751,444 L 751,443 L 754,440 L 754,439 L 756,437 L 756,436 L 758,434 L 758,433 L 760,431 L 760,430 L 761,429 L 761,428 L 762,427 L 762,426 L 763,425 L 763,424 L 764,423 L 764,421 L 765,420 L 765,419 L 766,418 L 766,416 L 767,415 L 767,412 L 768,411 L 768,409 L 769,408 L 769,405 L 770,404 L 770,400 L 771,399 L 771,394 L 772,393 L 772,385 L 773,384 L 773,376 L 772,375 L 772,367 L 771,366 L 771,361 L 770,360 L 770,356 L 769,355 L 769,353 L 768,352 L 768,349 L 767,348 L 767,346 L 766,345 L 766,343 L 765,342 L 765,340 L 764,339 L 764,338 L 763,337 L 763,336 L 762,335 L 762,334 L 761,333 L 761,332 L 760,331 L 760,330 L 759,329 L 759,328 L 757,326 L 757,325 L 756,324 L 756,323 L 754,321 L 754,320 L 752,318 L 752,317 L 749,314 L 749,313 L 746,310 L 746,309 L 732,295 L 731,295 L 727,291 L 726,291 L 723,288 L 722,288 L 720,286 L 719,286 L 717,284 L 716,284 L 715,283 L 714,283 L 712,281 L 711,281 L 710,280 L 709,280 L 708,279 L 707,279 L 706,278 L 705,278 L 704,277 L 703,277 L 702,276 L 701,276 L 700,275 L 699,275 L 698,274 L 696,274 L 695,273 L 693,273 L 692,272 L 691,272 L 690,271 L 688,271 L 687,270 L 685,270 L 684,269 L 681,269 L 680,268 L 677,268 L 676,267 L 673,267 L 672,266 L 668,266 L 667,265 L 663,265 L 662,264 L 657,264 L 656,263 L 649,263 L 648,262 L 640,262 L 639,261 L 500,261 L 500,262 L 501,263 L 501,264 L 502,265 L 502,266 L 503,267 L 503,268 L 505,270 L 505,271 L 506,272 L 506,273 L 507,274 L 507,275 L 508,276 L 508,277 L 509,278 L 509,279 L 510,280 L 510,281 L 511,282 L 511,283 L 512,284 L 512,285 L 513,286 L 513,287 L 514,288 L 514,289 L 516,291 L 516,292 L 517,293 L 517,294 L 518,295 L 518,296 L 519,297 L 519,298 L 520,299 L 520,300 L 521,301 L 521,302 L 522,303 L 522,304 L 523,305 L 523,306 L 525,308 L 525,309 L 526,310 L 526,311 L 527,312 L 527,313 L 528,314 L 528,315 L 529,316 L 529,317 L 530,318 L 530,319 L 531,320 L 531,321 L 532,322 L 532,323 L 534,325 L 534,326 L 535,327 L 535,328 L 536,329 L 536,330 L 537,331 L 537,332 L 538,333 L 538,334 L 539,335 L 539,336 L 540,337 L 540,338 L 542,340 L 542,341 L 543,342 L 543,343 L 544,344 L 544,345 L 545,346 L 545,347 L 546,348 L 546,349 L 547,350 L 547,351 L 548,352 L 549,352 L 548,351 L 548,296 L 549,295 L 550,295 L 551,296 L 552,295 L 588,295 L 589,296 L 630,296 L 631,297 L 632,296 L 633,297 L 647,297 L 648,298 L 656,298 L 657,299 L 662,299 L 663,300 L 668,300 L 669,301 L 672,301 L 673,302 L 676,302 L 677,303 L 679,303 L 680,304 L 682,304 L 683,305 L 685,305 L 686,306 L 687,306 L 688,307 L 690,307 L 691,308 L 692,308 L 693,309 L 694,309 L 696,311 L 697,311 L 698,312 L 699,312 L 701,314 L 702,314 L 704,316 L 705,316 L 710,321 L 711,321 L 719,329 L 719,330 L 723,334 L 723,335 L 725,337 L 725,338 L 727,340 L 727,341 L 729,343 L 729,344 L 730,345 L 730,346 L 731,347 L 731,348 L 732,349 L 732,351 L 733,352 L 733,353 L 734,354 L 734,356 L 735,357 L 735,360 L 736,361 L 736,364 L 737,365 L 737,371 L 738,372 L 738,391 L 737,392 L 737,396 L 736,397 L 736,400 L 735,401 L 735,403 L 734,404 L 734,406 L 733,407 L 733,409 L 732,410 L 732,411 L 731,412 L 731,413 L 730,414 L 730,415 L 728,417 L 728,418 L 727,419 L 727,420 L 725,422 L 725,423 L 723,425 L 723,426 L 716,433 L 716,434 L 715,435 L 714,435 L 708,441 L 707,441 L 705,443 L 704,443 L 702,445 L 701,445 L 700,446 L 699,446 L 697,448 L 696,448 L 695,449 L 694,449 L 693,450 L 692,450 L 691,451 L 689,451 L 688,452 L 687,452 L 686,453 L 684,453 L 683,454 L 681,454 L 680,455 L 678,455 L 677,456 L 675,456 L 674,457 L 670,457 L 669,458 L 665,458 L 664,459 L 659,459 L 658,460 L 650,460 L 649,461 L 635,461 L 634,462 L 562,462 L 560,460 L 560,459 L 559,458 L 559,457 L 558,456 L 558,455 L 557,454 L 557,453 L 556,452 L 556,451 L 555,450 L 555,449 L 554,448 L 554,447 L 553,446 L 553,445 L 552,444 L 552,443 L 551,442 L 551,441 L 549,439 L 549,437 L 547,435 L 547,434 L 546,433 L 546,432 L 545,431 L 545,430 L 544,429 L 544,428 L 543,427 L 543,426 L 542,425 L 542,424 L 541,423 L 541,422 L 540,421 L 540,420 L 539,419 L 539,418 L 538,417 L 538,416 L 536,414 L 536,413 L 535,412 L 535,411 L 534,410 L 534,409 L 533,408 L 533,407 L 532,406 L 532,405 L 530,403 L 530,402 L 529,401 L 529,400 L 528,399 L 528,398 L 527,397 L 527,396 L 526,395 L 526,394 L 525,393 L 525,392 L 524,391 L 524,390 L 523,389 L 523,388 L 522,387 L 522,386 L 521,385 L 521,384 L 520,383 L 520,382 L 518,380 L 518,379 L 517,378 L 517,377 L 516,376 L 516,375 L 515,374 L 515,373 L 514,372 L 514,371 L 513,370 L 513,369 L 512,368 L 512,367 L 510,365 L 510,364 L 509,363 L 509,362 L 508,361 L 508,360 L 507,359 L 507,358 L 506,357 L 506,356 L 505,355 L 505,354 L 504,353 L 504,352 L 503,351 L 503,350 L 502,349 L 502,348 L 501,347 L 501,346 L 500,345 L 500,344 L 498,342 L 498,341 L 497,340 L 497,339 L 496,338 L 496,337 L 495,336 L 495,335 L 494,334 L 494,333 L 493,332 L 493,331 L 492,330 L 492,329 L 491,328 L 491,327 L 490,326 L 490,325 L 488,323 L 488,322 L 487,321 L 487,320 L 486,319 L 486,318 L 485,317 L 485,316 L 484,315 L 484,314 L 482,312 L 482,311 L 481,310 L 481,309 L 480,308 L 480,307 L 479,306 L 479,305 L 477,303 L 477,302 L 476,301 L 476,300 L 475,299 L 475,298 L 474,297 L 474,296 L 473,295 L 473,294 L 472,293 L 472,292 L 471,291 L 471,290 L 470,289 L 470,287 L 468,285 L 468,284 L 467,283 L 467,282 L 466,281 L 466,280 L 465,279 L 465,278 L 464,277 L 464,276 L 462,274 L 462,273 L 461,272 L 461,271 L 460,270 L 460,269 L 458,267 L 458,266 L 457,265 L 457,264 L 456,263 L 456,262 L 455,261 L 455,260 L 454,259 L 454,258 L 453,257 L 453,256 L 452,255 L 452,254 L 451,253 L 451,252 L 450,251 L 450,250 L 449,249 L 449,248 L 448,247 L 448,246 L 447,245 L 447,244 L 445,242 L 445,241 L 444,240 L 444,239 L 443,238 L 443,237 L 442,236 L 442,235 L 441,234 L 441,233 L 440,232 L 440,231 L 439,230 L 439,229 L 438,228 L 438,227 Z" fill="black"/>
</svg>